<svg version="1" xmlns="http://www.w3.org/2000/svg" width="933.333" height="933.333" viewBox="0 0 700.000000 700.000000"><path d="M184.8 184.5c-.1.1-3.2.5-6.8.8-27.4 2.5-46.1 15.1-50.5 34.2-1.5 6.4-.9 31.6.9 41.2.2 1 .7 5 1 8.8.4 3.9.8 8.1 1.1 9.5 1.9 10.8 2.7 31.6 1.4 36.3-3.6 13.4-16 19.5-42.9 21.2-3 .2-5.8.4-6.2.4-.5.1-.8 5.9-.8 13.1 0 9.7.3 13 1.3 13.1 22 1.2 35.7 4.6 42 10.7 5.5 5.1 7.1 9.8 7.1 19.7-.1 11.5-.6 17.3-3.9 45-4.3 35.6-2.3 49 8.8 59.9 10.8 10.4 26.2 15.7 50.3 17.1l10 .6V491l-4.6-.1c-17-.1-30.3-5.9-34.2-14.7-1.8-4.1-2-5.8-1.4-16.1.4-6.4.8-13 1-14.6.2-1.7.7-6.6 1.1-11 .3-4.4.8-9.1 1-10.5 1.3-9.1 2-20.4 2-33 0-13.7-.2-14.8-2.7-20.3-4.4-9.3-10.6-14.3-22.9-18.2-6.3-2-8-3.5-4-3.5 2.9 0 15.8-6.7 19.8-10.4 2.2-1.9 5.2-6.1 6.9-9.3 2.8-5.6 2.9-6.2 2.9-20.3 0-8-.3-17.7-.8-21.5-.4-3.9-.9-9-1.2-11.5-.2-2.5-.7-7.2-1.1-10.5-.8-7.5-1.2-13.1-2-27.2-.7-10.8-.6-11.2 2-15.7 4.3-7.4 14.2-11.9 28.9-13.1 4-.4 7.7-.8 8.2-.9.6-.2 1-5.1 1-12.2v-11.9l-6.2-.2c-3.4-.1-6.3 0-6.5.2zM504.3 185.2c-.5.7-1 6.3-1.2 12.3l-.2 11 10.8 1.3c5.9.6 12.4 1.7 14.4 2.5 5.3 1.8 11.8 6.6 13.4 9.8 1.3 2.3 3.1 10.4 2.8 11.9-.1.3-.4 4.1-.7 8.5-.4 4.4-.9 9.8-1.1 12-.7 5.7-1.3 12-2 20-.4 3.8-.9 8.1-1.1 9.5-.3 1.4-.7 9.9-.9 19-.4 19.1.6 23.9 6.4 31.6 4.1 5.5 14 11.4 23.2 13.8 3.2.8 4.8 1.6 3.9 2-.8.3-4.7 1.7-8.7 3-11.7 4-20 10.6-22.8 18.1-2.1 5.6-3.1 17.4-2.4 27.5 1 13.3 2 25 2.4 26.8.1 1 .6 5.5 1 10.2.4 4.7.9 9.4 1.1 10.5.3 1.1.7 7.4 1 14 .5 11.2.4 12.3-1.8 16.5-2.6 5.1-6.5 8-13.5 10.3-4.8 1.6-14.8 3.4-21 3.9-1.8.1-3.4.5-3.4.8-.1.3-.2 5.8-.4 12.3l-.2 11.8 8.6-.6c10.8-.6 15.4-1.2 21.1-2.5 2.5-.6 4.7-1 5-1 .3 0 3.5-1 7.1-2.3 12.9-4.7 20.8-11.7 26.6-23.5 2.2-4.6 2.6-6.8 2.7-14.6.1-8.8-.6-20.3-2-31.6-.7-6.4-.9-7.9-1.9-17.8-.4-4-1.1-9.8-1.5-13-1.4-9.4-.7-23.2 1.3-27.3 5.4-11 16.9-16.2 40.5-18.3 3.5-.3 6.8-.8 7.3-1.2 1-.6 1.1-22.1.1-24.4-.4-.9-2.1-1.5-4.2-1.6-11.7-.4-25.6-3.1-31.9-6.4-5-2.5-9.6-7.1-11.8-11.8-1.4-2.8-1.8-6.1-1.8-13.7.1-10.1.4-13.6 3.1-36.5.4-3 .8-6.6.9-8 .1-1.4.6-5.9 1-10 1.1-11 1.2-22.7.3-28.8-2.3-14.8-15.4-27.5-33.6-32.8-12.1-3.4-34.2-5.4-35.9-3.2zM315 234.4c0 .2-.4 2.5-.9 5.2s-1.2 7.8-1.6 11.4c-.4 3.6-.9 7.2-1 8.1-.2.9-.6 4-1 7-.3 3-.8 6.5-1.1 7.9-.2 1.4-.6 3.8-.8 5.5-.2 1.6-.7 4.6-1.1 6.5l-.6 3.5-13.9.1c-7.7 0-14.2.3-14.6.7-.7.7-1.4 21.3-.7 23.2.2.6 3.8 1 8.6 1 4.5 0 10.2.2 12.7.5 5 .6 5.4 1.4 4 9.3-.5 2.3-1.1 6.7-1.5 9.7-.3 3-1 8-1.5 11s-1.2 7.7-1.5 10.5c-.3 2.7-.7 6.3-1 8-.7 4.2-1.5 10.3-2 15-.3 2.2-.8 5.2-1.1 6.7-.6 3.1.8 2.9-18.4 3.2l-10.5.2-.3 12.2-.4 12.2h26.4l-.7 3.7c-.8 4.3-1.1 6.4-1.9 14.3-.3 3-.8 6.4-1 7.5-.2 1.2-.7 4.8-1.1 8-.4 3.3-.9 6.8-1.1 7.7-.1.9-.6 4.6-.9 8.2l-.7 6.6 2.8.1c15.3.6 24.4.4 24.5-.5.5-4.2 1.3-9.7 2.4-16.6.2-1.4.7-4.8 1-7.5.3-2.8.9-8.2 1.5-12 .5-3.9 1.2-9.5 1.5-12.5.3-3 1.1-5.8 1.8-6.2 1.3-.8 45.2-.6 46 .2.3.3-.1 4.1-.8 8.5-.7 4.4-1.6 10.7-1.9 14-.4 3.3-1.2 9.1-1.7 13-1.3 9.6-2.1 15.6-2.3 18-.1 1.9.5 2 13.1 1.9 7.3 0 13.5-.3 13.8-.6.7-.7 1.1-2.8 1.9-10.3.4-3.3.9-7.4 1.1-9 .4-2.7 1.8-13.9 3.1-24 .2-2.2.7-5.9 1-8.3l.6-4.2H423v-24.6l-13.1.1-13.1.2.7-6.6c.4-3.6.8-7.3 1-8.1.1-.8.6-4 1-7 .3-3 .8-6.6 1-8 .3-1.4.7-4.3.9-6.5.3-2.2.7-5.6 1-7.5.2-1.9 1.2-9.1 2.1-16 .9-6.9 2-12.9 2.4-13.3.4-.4 6.8-1 14.1-1.2 9.4-.3 13.6-.8 14.2-1.7.4-.7.7-6.3.6-12.3l-.3-11h-12.2c-14 .1-13.3.7-12.1-9.5.4-3.6 1-8.5 1.3-11 .5-4.8 2.3-17.8 3.1-22 .2-1.4.6-4.9 1-7.8l.5-5.3-13.1.2c-11 .1-13.2.4-13.9 1.8-.8 1.4-1.2 4.1-2.6 14.6-.3 1.6-1.1 7.9-1.9 14-.8 6-1.8 13-2.1 15.5-.3 2.5-.8 5.4-1 6.5-.2 1.1-.4 2.2-.4 2.5-.1.7-45.2.2-46-.5-.4-.5.3-8.2 2.4-24.5 1.2-9.8 3.7-26.8 4.1-28.3.5-1.6-.6-1.7-13.5-1.7-7.8 0-14.1.2-14.1.4zm62.8 80.5c1.3.1 1.2.9-.3 11.1-.2 1.4-.7 5-1 8-.3 3-.8 6.2-1 7-.2.8-1.4 8.7-2.5 17.5-1.2 8.8-2.3 17.1-2.5 18.5-.2 1.4-.6 4.3-1 6.4-.3 2.2-.8 4.2-1 4.5-.6.6-41.1.8-44.3.3-2.5-.5-2.5-.5.2-19.2.9-6.2 2.7-19.4 3.2-24 .3-2.5.7-5.6.9-6.9.2-1.3 1-6.8 1.6-12.3 1.3-10.9 1-10.5 9.4-11 3.9-.3 35.7-.2 38.3.1z"/></svg>