<?xml version="1.0" standalone="no"?>
<!DOCTYPE svg PUBLIC "-//W3C//DTD SVG 20010904//EN"
 "http://www.w3.org/TR/2001/REC-SVG-20010904/DTD/svg10.dtd">
<svg version="1.0" xmlns="http://www.w3.org/2000/svg"
 width="700.000000pt" height="700.000000pt" viewBox="0 0 700.000000 700.000000"
 preserveAspectRatio="xMidYMid meet">
<metadata>
Created by potrace 1.11, written by Peter Selinger 2001-2013
</metadata>
<g transform="translate(0.000000,700.000000) scale(0.100000,-0.100000)"
fill="#000000" stroke="none">
<path d="M1710 5138 c-245 -42 -383 -143 -434 -318 -12 -42 -15 -84 -12 -185
3 -71 7 -140 10 -152 4 -19 13 -100 21 -183 4 -39 17 -152 21 -185 3 -16 7
-80 11 -140 5 -106 4 -113 -21 -167 -54 -115 -191 -169 -428 -172 -32 -1 -58
-5 -59 -11 -1 -15 -1 -228 0 -245 1 -12 18 -15 84 -17 95 -2 218 -25 280 -52
54 -24 110 -80 130 -133 13 -33 16 -66 13 -152 -3 -61 -7 -124 -9 -141 -3 -16
-8 -59 -12 -95 -4 -36 -8 -76 -10 -90 -2 -14 -6 -55 -10 -92 -3 -37 -8 -77
-11 -90 -2 -13 -7 -77 -10 -143 -10 -182 23 -284 121 -374 70 -65 202 -123
310 -137 28 -3 53 -8 56 -10 4 -2 56 -6 116 -10 l109 -5 0 125 0 126 -51 1
c-186 4 -316 65 -347 162 -14 46 -15 85 -3 197 10 94 11 108 19 200 4 41 9 91
11 110 2 19 7 69 11 110 3 41 8 84 10 95 7 34 6 210 -2 251 -10 61 -51 140
-90 173 -47 42 -122 79 -192 95 l-57 13 45 12 c65 18 160 66 196 100 36 33 83
107 89 143 3 12 7 36 11 51 8 36 8 167 0 232 -10 91 -18 160 -21 200 -3 38
-14 153 -20 205 -7 60 -19 227 -18 253 6 125 113 196 323 215 l85 7 0 123 0
122 -85 -2 c-47 -2 -128 -10 -180 -20z"/>
<path d="M5037 5153 c-3 -4 -5 -60 -5 -124 l0 -116 86 -6 c221 -16 326 -93
325 -237 -1 -26 -9 -129 -18 -215 -3 -27 -8 -70 -10 -95 -5 -55 -17 -166 -20
-200 -39 -338 -13 -472 109 -565 41 -31 168 -85 200 -85 49 0 33 -15 -35 -32
-150 -39 -251 -121 -275 -223 -24 -101 -23 -194 1 -415 2 -19 6 -61 9 -92 3
-32 9 -84 12 -115 3 -32 7 -74 9 -93 23 -195 22 -259 -3 -311 -38 -77 -137
-122 -302 -136 l-85 -8 -1 -123 -1 -123 106 5 c214 12 383 66 483 155 32 28
60 68 85 118 37 74 38 79 38 187 0 99 -12 273 -20 286 -2 3 -6 43 -10 90 -4
47 -9 93 -10 102 -2 9 -7 48 -10 85 -4 37 -9 82 -11 98 -12 89 -5 168 21 221
56 114 178 165 430 180 22 1 43 2 48 3 4 1 7 60 7 131 0 72 -3 130 -7 131 -5
1 -26 2 -48 4 -319 19 -447 99 -457 285 -1 29 13 213 17 220 2 3 6 39 10 80
10 97 10 97 30 280 26 236 12 343 -60 442 -58 80 -192 162 -295 181 -14 3 -36
8 -50 11 -81 18 -285 32 -293 19z"/>
<path d="M3146 4633 c-3 -16 -8 -46 -11 -68 -5 -42 -14 -112 -20 -155 -2 -14
-7 -47 -10 -75 -9 -69 -24 -175 -30 -205 l-6 -26 -137 1 c-75 1 -141 0 -147
-2 -6 -2 -10 -53 -10 -125 l0 -123 127 0 c70 0 130 -4 134 -8 4 -3 2 -39 -5
-79 -6 -40 -13 -90 -16 -110 -3 -21 -7 -53 -9 -70 -3 -18 -8 -55 -12 -83 -3
-27 -8 -57 -9 -65 -2 -9 -6 -43 -10 -75 -4 -33 -9 -68 -11 -79 -2 -10 -6 -43
-10 -74 -9 -80 -9 -81 -18 -89 -4 -4 -69 -8 -144 -8 l-137 -1 -3 -122 -3 -122
131 0 131 0 -5 -32 c-4 -18 -9 -55 -12 -83 -3 -27 -7 -61 -9 -75 -4 -23 -20
-138 -30 -220 -3 -19 -7 -57 -11 -85 -3 -27 -7 -54 -8 -60 0 -6 53 -10 136
-10 l137 -1 5 25 c3 14 8 50 11 80 4 30 8 62 10 72 2 10 6 44 10 76 3 32 10
85 15 118 17 119 23 160 22 178 -1 16 17 17 239 17 224 0 240 -1 235 -17 -2
-10 -8 -43 -11 -73 -9 -73 -12 -95 -30 -230 -9 -63 -18 -133 -20 -155 -3 -22
-8 -51 -10 -65 l-6 -26 141 0 c107 0 140 3 141 13 1 7 2 16 3 21 1 4 6 38 10
76 4 38 9 79 11 90 2 12 9 64 15 116 6 52 13 106 15 120 2 14 6 49 10 78 l7
52 149 0 149 0 1 40 c1 51 1 120 0 168 l-1 37 -131 -1 -131 -1 7 66 c4 36 8
73 10 81 1 8 6 40 10 70 3 30 8 66 10 80 3 14 7 43 9 65 7 50 13 98 26 195 5
41 12 98 16 125 3 28 8 52 11 55 2 2 66 5 141 6 75 1 140 2 145 3 4 0 7 56 7
124 l0 122 -127 0 -128 0 1 35 c0 32 5 78 19 170 3 19 8 55 10 80 3 25 10 72
16 105 5 33 12 84 15 113 l6 52 -136 0 c-133 0 -136 0 -140 -22 -7 -33 -15
-86 -21 -138 -5 -38 -13 -100 -41 -310 -3 -19 -7 -46 -10 -60 l-4 -25 -223 1
c-122 1 -227 2 -234 3 -12 1 -11 16 12 176 8 61 18 133 21 160 4 28 12 87 19
133 l12 82 -138 0 -137 0 -6 -27z m639 -823 c-3 -25 -8 -58 -10 -75 -3 -16 -7
-46 -9 -65 -3 -19 -14 -102 -26 -185 -11 -82 -22 -163 -25 -180 -3 -25 -12
-87 -20 -140 -1 -5 -3 -19 -3 -30 -2 -20 -7 -21 -237 -21 -206 0 -235 2 -235
15 0 9 4 43 9 76 5 33 12 80 15 105 7 64 36 281 41 306 2 12 9 66 15 120 6 55
13 104 15 109 1 6 90 10 239 10 l237 0 -6 -45z"/>
</g>
</svg>
